<svg xmlns="http://www.w3.org/2000/svg" xmlns:xlink="http://www.w3.org/1999/xlink" width="90" height="85" viewBox="0 0 90 85">
  <metadata><?xpacket begin="﻿" id="W5M0MpCehiHzreSzNTczkc9d"?>
<x:xmpmeta xmlns:x="adobe:ns:meta/" x:xmptk="Adobe XMP Core 5.6-c138 79.159824, 2016/09/14-01:09:01        ">
   <rdf:RDF xmlns:rdf="http://www.w3.org/1999/02/22-rdf-syntax-ns#">
      <rdf:Description rdf:about=""/>
   </rdf:RDF>
</x:xmpmeta>
                                                                                                    
                                                                                                    
                                                                                                    
                                                                                                    
                                                                                                    
                                                                                                    
                                                                                                    
                                                                                                    
                                                                                                    
                                                                                                    
                                                                                                    
                                                                                                    
                                                                                                    
                                                                                                    
                                                                                                    
                                                                                                    
                                                                                                    
                                                                                                    
                                                                                                    
                                                                                                    
                           
<?xpacket end="w"?></metadata>
<defs>
    <style>
      .cls-1 {
        fill-rule: evenodd;
        fill: url(#linear-gradient);
      }
    </style>
    <linearGradient id="linear-gradient" x1="503" y1="775" x2="503" y2="690" gradientUnits="userSpaceOnUse">
      <stop offset="0" stop-color="#336bf3"/>
      <stop offset="1" stop-color="#298bed"/>
    </linearGradient>
  </defs>
  <path id="total_sold_coin" class="cls-1" d="M514.583,739.629c-2.384,0-4.324-1.673-4.324-3.729s1.94-3.73,4.324-3.73,4.324,1.673,4.324,3.73a1.966,1.966,0,0,0,3.931,0,7.8,7.8,0,0,0-6.289-7.426v-1.019a1.966,1.966,0,0,0-3.931,0v1.019a7.8,7.8,0,0,0-6.29,7.426c0,4.216,3.7,7.646,8.255,7.646,2.385,0,4.324,1.673,4.324,3.729S516.968,751,514.583,751s-4.324-1.672-4.324-3.729a1.966,1.966,0,0,0-3.931,0,7.8,7.8,0,0,0,6.29,7.426v0.846a1.966,1.966,0,0,0,3.931,0V754.7a7.8,7.8,0,0,0,6.289-7.426C522.838,743.059,519.135,739.629,514.583,739.629Zm21.528-11.65a25.594,25.594,0,0,0-10.461-9.225,1.96,1.96,0,1,0-1.7,3.531,21.521,21.521,0,0,1,9.746,29.532,1.964,1.964,0,0,0,3.47,1.84A25.416,25.416,0,0,0,536.111,727.979Zm-18.438-11.726h-0.132a1.959,1.959,0,1,0,0,3.917h0.12A1.959,1.959,0,1,0,517.673,716.253Zm-12.435,44.889a21.519,21.519,0,0,1-9.746-29.533,1.964,1.964,0,0,0-3.47-1.84,25.441,25.441,0,0,0,11.513,34.9A1.96,1.96,0,1,0,505.238,761.142Zm6.407,2.115h-0.114a1.959,1.959,0,1,0-.018,3.917h0.132A1.959,1.959,0,1,0,511.645,763.257Zm16.116-69.331a5.092,5.092,0,1,1,0,10.184H479.607a5.092,5.092,0,1,1,0-10.184h48.154Zm-55.607,0a8.958,8.958,0,0,0,0,10.184h-5.126a9,9,0,0,0-5.618,16.06,8.973,8.973,0,0,0,0,14.1,8.973,8.973,0,0,0,0,14.1,9,9,0,0,0,5.618,16.059h23.163a33.347,33.347,0,1,0,33.326-54.805,8.977,8.977,0,0,0-.873-1.6h5.117a9.009,9.009,0,1,0,0-18.018H481.516C474.253,690.009,472.154,693.926,472.154,693.926Zm-5.126,14.1h48.154a5.125,5.125,0,0,1,2.23.511q-1.4-.117-2.819-0.119a33.37,33.37,0,0,0-23.645,9.792h-23.92A5.092,5.092,0,1,1,467.028,708.027Zm0,14.1H487.59a33.127,33.127,0,0,0-5.052,10.184h-15.51A5.092,5.092,0,1,1,467.028,722.128Zm0,14.1h14.607a33.173,33.173,0,0,0-.121,10.184H467.028A5.092,5.092,0,1,1,467.028,736.229Zm0,24.285a5.092,5.092,0,1,1,0-10.184h15.288a33.1,33.1,0,0,0,4.716,10.184h-20Zm47.565,10.577a29.378,29.378,0,1,1,29.482-29.378A29.464,29.464,0,0,1,514.593,771.091Z" transform="translate(-458 -690)"/>
</svg>
