<svg xmlns="http://www.w3.org/2000/svg" xmlns:xlink="http://www.w3.org/1999/xlink" width="75" height="88" viewBox="0 0 75 88">
  <metadata><?xpacket begin="﻿" id="W5M0MpCehiHzreSzNTczkc9d"?>
<x:xmpmeta xmlns:x="adobe:ns:meta/" x:xmptk="Adobe XMP Core 5.6-c138 79.159824, 2016/09/14-01:09:01        ">
   <rdf:RDF xmlns:rdf="http://www.w3.org/1999/02/22-rdf-syntax-ns#">
      <rdf:Description rdf:about=""/>
   </rdf:RDF>
</x:xmpmeta>
                                                                                                    
                                                                                                    
                                                                                                    
                                                                                                    
                                                                                                    
                                                                                                    
                                                                                                    
                                                                                                    
                                                                                                    
                                                                                                    
                                                                                                    
                                                                                                    
                                                                                                    
                                                                                                    
                                                                                                    
                                                                                                    
                                                                                                    
                                                                                                    
                                                                                                    
                                                                                                    
                           
<?xpacket end="w"?></metadata>
<defs>
    <style>
      .cls-1 {
        fill-rule: evenodd;
        fill: url(#linear-gradient);
      }
    </style>
    <linearGradient id="linear-gradient" x1="366.5" y1="777" x2="366.5" y2="689" gradientUnits="userSpaceOnUse">
      <stop offset="0" stop-color="#336bf3"/>
      <stop offset="1" stop-color="#298bed"/>
    </linearGradient>
  </defs>
  <path id="total_coin" class="cls-1" d="M385.273,752.65a18.279,18.279,0,0,0-5.379-2.069c-0.409-.11-0.816-0.22-1.215-0.335-2.291-.659-3.76-1.958-3.93-3.477a3.3,3.3,0,0,1,2.022-3.17,4.064,4.064,0,0,1,.981-0.364v2.727a1.875,1.875,0,0,0,3.75,0V743.37a11.256,11.256,0,0,1,3.034,1.205,1.9,1.9,0,0,0,2.575-.619,1.811,1.811,0,0,0-.633-2.518,15.241,15.241,0,0,0-4.976-1.821V738.3a1.875,1.875,0,0,0-3.75,0v1.207a8.237,8.237,0,0,0-2.79.881,6.913,6.913,0,0,0-3.941,6.78c0.34,3.041,2.808,5.507,6.6,6.6l0.13,0.036v8.633a4.59,4.59,0,0,1-3.247-1.67,1.9,1.9,0,0,0-2.527-.783,1.812,1.812,0,0,0-.8,2.471c1.14,2.15,3.785,3.36,6.575,3.669v1.914a1.875,1.875,0,0,0,3.75,0v-2.046a10.339,10.339,0,0,0,1.132-.278,7.991,7.991,0,0,0,5.573-6.374A6.652,6.652,0,0,0,385.273,752.65Zm-0.777,6.156a4.277,4.277,0,0,1-2.989,3.407l0,0v-7.322a7.9,7.9,0,0,1,1.667.792A3.088,3.088,0,0,1,384.5,758.806Zm-4.869-29.472q-0.947,0-1.876.069v-31.7c0-1.914-1.372-4.614-7.906-6.611a65.719,65.719,0,0,0-32.938,0c-6.534,2-7.906,4.7-7.906,6.611v55.459c0,1.914,1.372,4.615,7.906,6.611a58.721,58.721,0,0,0,16.469,2.1c1.181,0,2.362-.029,3.527-0.084A24.409,24.409,0,0,0,379.627,777C393.067,777,404,766.309,404,753.167S393.067,729.334,379.627,729.334Zm-41.6-34.737a62.011,62.011,0,0,1,30.7,0c4.305,1.315,5.274,2.722,5.274,3.111s-0.969,1.8-5.274,3.112a62.011,62.011,0,0,1-30.7,0c-4.306-1.315-5.275-2.722-5.275-3.112S333.72,695.913,338.026,694.6Zm-5.275,8.025a21.5,21.5,0,0,0,4.156,1.7,65.719,65.719,0,0,0,32.938,0,21.477,21.477,0,0,0,4.156-1.7v4.33c0,0.389-.969,1.8-5.274,3.111a54.834,54.834,0,0,1-15.351,1.931,67.542,67.542,0,0,1-7.845-.443,1.866,1.866,0,0,0-2.085,1.6,1.843,1.843,0,0,0,1.639,2.039,71.439,71.439,0,0,0,8.291.468,58.711,58.711,0,0,0,16.469-2.1,21.545,21.545,0,0,0,4.156-1.7v13.572c0,0.389-.969,1.8-5.274,3.112a62.042,62.042,0,0,1-30.7,0c-4.306-1.316-5.275-2.723-5.275-3.112v-4.329a21.545,21.545,0,0,0,4.156,1.7,58.682,58.682,0,0,0,16.469,2.1,68.437,68.437,0,0,0,10.5-.771,1.838,1.838,0,0,0,1.557-2.1,1.872,1.872,0,0,0-2.147-1.522,65.778,65.778,0,0,1-9.914.723,54.842,54.842,0,0,1-15.351-1.93c-4.3-1.315-5.274-2.722-5.274-3.111V702.622h0Zm20.625,55.587a54.867,54.867,0,0,1-15.35-1.93c-4.306-1.316-5.275-2.723-5.275-3.112v-4.329a21.545,21.545,0,0,0,4.156,1.7,58.685,58.685,0,0,0,16.469,2.1c0.627,0,1.256-.008,1.882-0.024,0,0.187-.007.372-0.007,0.559,0,0.209,0,.416.009,0.624,0,0.064,0,.129.007,0.194,0,0.143.01,0.285,0.017,0.427,0,0.078.011,0.157,0.016,0.234,0.008,0.128.015,0.256,0.025,0.384,0.007,0.086.016,0.172,0.024,0.258,0.011,0.118.021,0.237,0.033,0.355,0.01,0.093.022,0.186,0.033,0.279,0.013,0.11.026,0.22,0.04,0.329s0.029,0.2.044,0.3,0.028,0.2.044,0.3,0.037,0.221.056,0.332c0.015,0.088.03,0.175,0.046,0.263,0.023,0.121.047,0.241,0.072,0.362l0.045,0.223c0.009,0.045.018,0.09,0.028,0.136C354.99,758.2,354.183,758.209,353.376,758.209Zm4.033-14.845a0.011,0.011,0,0,1,0,0c-0.066.144-.13,0.287-0.193,0.432l-0.055.123c-0.029.068-.057,0.136-0.085,0.2a23.207,23.207,0,0,0-1.436,4.8q-1.128.036-2.262,0.037a54.879,54.879,0,0,1-15.351-1.93c-4.3-1.316-5.274-2.723-5.274-3.112V730.351h0a21.477,21.477,0,0,0,4.156,1.7,58.721,58.721,0,0,0,16.469,2.1,64.316,64.316,0,0,0,13.6-1.35,24.31,24.31,0,0,0-5.894,4.9q-0.736.841-1.384,1.743c-2.039.188-4.167,0.284-6.325,0.284a67.542,67.542,0,0,1-7.845-.443,1.867,1.867,0,0,0-2.085,1.6,1.842,1.842,0,0,0,1.639,2.038,71.439,71.439,0,0,0,8.291.468c1.375,0,2.736-.041,4.075-0.114C357.438,743.305,357.423,743.335,357.409,743.364Zm22.218,29.969a20.615,20.615,0,0,1-19.694-14.167c-0.032-.1-0.061-0.2-0.092-0.3-0.05-.168-0.1-0.337-0.145-0.506q-0.047-.171-0.09-0.342c-0.024-.094-0.048-0.188-0.071-0.283q-0.068-.289-0.128-0.58c-0.016-.079-0.031-0.159-0.047-0.238-0.032-.169-0.063-0.338-0.091-0.507l-0.027-.159c-0.034-.216-0.063-0.432-0.09-0.649-0.008-.063-0.015-0.126-0.022-0.189-0.024-.211-0.046-0.421-0.063-0.632,0-.019,0-0.037,0-0.056q-0.025-.342-0.04-0.687c0-.058,0-0.115-0.007-0.173-0.008-.232-0.014-0.465-0.014-0.7,0-.28.008-0.557,0.019-0.834l0.006-.136c0.012-.25.03-0.5,0.051-0.746,0.006-.078.013-0.156,0.021-0.233,0.021-.22.047-0.439,0.075-0.656,0.016-.118.033-0.235,0.051-0.352s0.034-.214.051-0.321c0.044-.26.091-0.519,0.145-0.776a0.041,0.041,0,0,0,0-.009,20.423,20.423,0,0,1,14.518-15.323l0.089-.025c0.169-.047.34-0.092,0.51-0.135,0.195-.047.392-0.094,0.59-0.137l0.227-.048c0.259-.053.519-0.1,0.782-0.146a21.106,21.106,0,0,1,3.489-.29A20.172,20.172,0,1,1,379.627,773.333Zm-41.19-59.342q0.437,0.113.891,0.218a1.92,1.92,0,0,0,.436.05,1.868,1.868,0,0,0,1.822-1.409,1.831,1.831,0,0,0-1.39-2.208c-0.272-.063-0.54-0.129-0.8-0.2a1.878,1.878,0,0,0-2.291,1.3A1.828,1.828,0,0,0,338.437,713.991Zm30.464,9.014a1.919,1.919,0,0,0,.536-0.077c0.369-.108.74-0.223,1.1-0.343a1.825,1.825,0,0,0,1.174-2.326,1.885,1.885,0,0,0-2.378-1.147c-0.32.106-.647,0.208-0.971,0.3a1.827,1.827,0,0,0-1.262,2.28A1.872,1.872,0,0,0,368.9,723.005ZM340.2,738.371c-0.273-.063-0.541-0.129-0.8-0.2a1.88,1.88,0,0,0-2.289,1.308,1.83,1.83,0,0,0,1.338,2.239c0.29,0.074.587,0.146,0.889,0.217a1.976,1.976,0,0,0,.435.05,1.867,1.867,0,0,0,1.822-1.411A1.831,1.831,0,0,0,340.2,738.371Z" transform="translate(-329 -689)"/>
</svg>
